<?xml version="1.0" encoding="utf-8"?>
<!-- Generator: Adobe Illustrator 24.1.0, SVG Export Plug-In . SVG Version: 6.00 Build 0)  -->
<svg version="1.1" id="Layer_1" xmlns="http://www.w3.org/2000/svg" xmlns:xlink="http://www.w3.org/1999/xlink" x="0px" y="0px"
	 viewBox="0 0 481.34 529.47" style="enable-background:new 0 0 481.34 529.47;" xml:space="preserve">
<style type="text/css">
	.st0{opacity:0.4;}
	.st1{fill:#649087;}
	.st2{display:none;fill:url(#SVGID_1_);}
</style>
<g class="st0">
	<path class="st1" d="M233.02,97.47c42.54,0,64.05,8.47,73.68,27.84l38.98-25.39h38.39c-38.79-32.05-88.54-51.31-142.79-51.31
		c-55.59,0-106.44,20.23-145.63,53.72c12.58-3.39,28.4-4.86,47.77-4.86H233.02z"/>
	<path class="st1" d="M269.46,392.49H197.9c-10.4,0-17.74,4.59-19.88,14.68h-58.71v-85.2H56.33v-75.46
		c0-27.28,17.78-45.37,61.62-48.43l77.94-4.91c49.71-3.07,53.08-3.99,53.08-25.79c0-18.11-1.84-22.1-45.41-22.1h-45.11
		c-28.84,0-37.74,4.3-37.74,27.32v9.52H56.33v-26.09c0-3.87,0.21-7.5,0.62-10.93c-25.2,36.27-39.98,80.32-39.98,127.82
		c0,76.47,38.27,143.98,96.69,184.48c-1.12-5.33-1.69-11.33-1.69-18.12v-12.84h62.38c0,18.65,5.2,23.85,36.39,23.85h63.6
		c31.19,0,34.55-8.56,34.55-29.97C308.9,395.24,300.65,392.49,269.46,392.49z"/>
	<path class="st1" d="M426.93,146.99v174.98h-62.54V153.26l-51.83,33.21c-3.68,44.51-21.92,53.27-90.58,56.98l-70.27,3.68
		c-28.54,1.54-32.83,7.06-32.83,27.03h0.44v-0.01h219.05v47.82h-21.94h-138.4v38.41c8.56-8.56,17.74-13.76,42.2-13.76h76.75
		c47.09,0,74.31,15.29,74.31,64.22v14.07c0,13.64-1.42,24.76-4.29,33.81c55.17-37.4,92.8-98.72,97.98-169.07
		c0.41-5.52,0.61-11.1,0.61-16.72C465.6,226.24,451.33,182.89,426.93,146.99z"/>
</g>
<g>
	<radialGradient id="SVGID_1_" cx="251.2978" cy="185.6376" r="184.9537" gradientUnits="userSpaceOnUse">
		<stop  offset="0" style="stop-color:#163072"/>
		<stop  offset="0.5837" style="stop-color:#163072"/>
		<stop  offset="0.6798" style="stop-color:#163072"/>
		<stop  offset="0.7241" style="stop-color:#1B3274"/>
		<stop  offset="0.7722" style="stop-color:#25397A"/>
		<stop  offset="0.8222" style="stop-color:#364584"/>
		<stop  offset="0.8733" style="stop-color:#4E5993"/>
		<stop  offset="0.9254" style="stop-color:#7076A9"/>
		<stop  offset="0.9776" style="stop-color:#9A9DC5"/>
		<stop  offset="1" style="stop-color:#B1B2D2"/>
	</radialGradient>
	<path class="st2" d="M296.32,235.12c-32.48,23.38-67.45,37.95-99.99,43.5c16.87,7.24,35.45,11.26,54.97,11.26
		c77.05,0,139.51-62.45,139.51-139.49c0-13.57-1.98-26.67-5.59-39.07C376.32,153.89,344.73,200.25,296.32,235.12z"/>
</g>
</svg>
