<?xml version="1.0" standalone="no"?>
<!DOCTYPE svg PUBLIC "-//W3C//DTD SVG 20010904//EN"
 "http://www.w3.org/TR/2001/REC-SVG-20010904/DTD/svg10.dtd">
<svg version="1.0" xmlns="http://www.w3.org/2000/svg"
 width="260.000000pt" height="260.000000pt" viewBox="0 0 260.000000 260.000000"
 preserveAspectRatio="xMidYMid meet">
<metadata>
Created by potrace 1.11, written by Peter Selinger 2001-2013
</metadata>
<g transform="translate(0.000000,260.000000) scale(0.100000,-0.100000)"
fill="#000000" stroke="none">
<path d="M1079 2585 c-175 -28 -340 -86 -496 -176 -84 -48 -226 -149 -220
-156 2 -2 30 3 63 9 42 9 193 13 524 13 409 0 473 -2 533 -17 96 -25 159 -60
205 -115 l41 -47 118 79 118 80 130 5 130 5 -85 62 c-102 75 -292 171 -410
208 -198 61 -452 81 -651 50z"/>
<path d="M219 2037 c-83 -131 -152 -307 -191 -478 -20 -91 -23 -130 -23 -319
0 -188 3 -228 23 -318 79 -354 249 -639 507 -852 l70 -58 -3 104 -4 104 201 0
201 0 0 -35 c0 -50 23 -90 62 -106 47 -20 668 -20 715 0 51 21 66 55 71 151 5
109 -10 157 -58 184 -33 20 -53 21 -366 24 l-331 3 -31 -25 c-16 -14 -33 -37
-36 -51 l-6 -25 -185 0 -185 0 0 285 0 285 -200 0 -200 0 -1 253 c-1 138 -1
266 0 282 6 135 101 232 266 270 35 9 228 26 427 40 399 27 456 35 496 70 26
22 27 28 27 110 0 82 -1 88 -27 110 -39 34 -77 37 -405 33 -277 -3 -293 -4
-320 -24 -41 -31 -55 -68 -55 -145 l1 -69 -205 0 -204 0 -1 88 c-1 48 0 102 1
120 1 17 0 32 -2 32 -2 0 -15 -19 -29 -43z"/>
<path d="M2348 1490 l-3 -575 -202 -3 -203 -2 -2 559 -3 560 -166 -109 -166
-109 -7 -55 c-10 -86 -42 -160 -86 -200 -100 -90 -182 -106 -706 -135 -364
-21 -398 -27 -429 -75 -10 -15 -20 -46 -23 -71 l-5 -45 712 0 711 0 0 -160 0
-160 -520 0 -520 0 0 -126 0 -125 33 25 c78 60 88 61 497 61 289 0 388 -3 430
-14 163 -42 244 -119 281 -271 16 -65 16 -333 1 -400 -6 -24 -9 -46 -8 -48 8
-8 158 122 229 199 197 211 328 479 378 770 28 161 23 431 -10 574 -41 176
-105 336 -189 475 l-22 35 -2 -575z"/>
</g>
</svg>
